# xmcd CD database file generated by Grip 2.96
# 
# Track frame offsets:
#       150
#       14532
#       35820
#       52330
#       72400
#       84512
#       107967
#       126357
#       141817
#       152042
#       168655
#       182357
#       203117
#       216527
#       237482
#       252552
#       274005
#       288525
#       301665
#       321815
# 
# Disc length: 4483 seconds
# 
# Revision: 0
# Processed by: cddbd v1.4PL0 Copyright (c) Steve Scherf et al.
# Submitted via: Grip 2.96
# 
DISCID=3c118114
DTITLE=john denver - John denver best
DYEAR=1900
DGENRE=
TTITLE0=Track 01 TAME ME HOME, COUNTRY ROADS
TTITLE1=Track 02 ROCKY MOUNTAIN HIGH
TTITLE2=Track 03 GOODBY AGAIN
TTITLE3=Track 04 MY SWEET LADY
TTITLE4=Track 05 FOREST LAWN
TTITLE5=Track 06 SUNSHINE ON MY SHOULDERS
TTITLE6=Track 07 LEAVING ON A JET PLANE 
TTITLE7=Track 08 FRIENDS WITH YOU
TTITLE8=Track 09 THE EAGLE AND THE HAWK
TTITLE9=Track 10 PRISONERS
TTITLE10=Track 11 ANNIE"S SONG
TTITLE11=Track 12 POEMS, PAYEERS AND PROMISSES
TTITLE12=Track 13 PLEASE DADDY
TTITLE13=Track 14 MR. BOJANGLES
TTITLE14=Track 15 CITY OF NEWE ORLEANS
TTITLE15=Track 16 BACK HOME AGAIN
TTITLE16=Track 17 STAWOOD IN ASPEN
TTITLE17=Track 18 FOLLOW ME
TTITLE18=Track 19 I'D RATHER BE A COWBOY (LADY'S CHAIN)
TTITLE19=Track 20 RHYMES AND REASONS
EXTD=
EXTT0=
EXTT1=
EXTT2=
EXTT3=
EXTT4=
EXTT5=
EXTT6=
EXTT7=
EXTT8=
EXTT9=
EXTT10=
EXTT11=
EXTT12=
EXTT13=
EXTT14=
EXTT15=
EXTT16=
EXTT17=
EXTT18=
EXTT19=
PLAYORDER=
